#!OML:ASF I:\golf\golf\golf 2\Subject 1\2002-09-07\Subject1.ASF
:FULLY-SPECIFIED
:DEGREES
162
root 0.0477722 18.0111 -7.33092 12.4511 -3.42839 -3.32454
lowerback 3.6438 1.36721 -3.27868
upperback 4.47724 1.68626 4.56629
thorax 2.35645 0.674627 6.57138
lowerneck -14.7317 1.86466 1.21641
upperneck 39.3144 6.00295 -8.66737
head 17.2247 1.4721 -3.03188
rclavicle -9.54166e-015 -1.90833e-014
rhumerus -20.4902 10.2144 -81.77
rradius 31.3566
rwrist -9.29835
rhand -21.4707 10.3294
rfingers 7.12502
rthumb 4.91984 -19.5935
lclavicle -9.54166e-015 -1.90833e-014
lhumerus -29.2024 -35.9507 97.0472
lradius 48.1588
lwrist -6.92476
lhand -16.55 16.8863
lfingers 7.12502
lthumb 9.66949 46.6444
rfemur -13.636 -0.222921 26.5013
rtibia 25.0554
rfoot -17.3353 -7.55412
rtoes 2.30423
lfemur -35.1007 6.23776 -9.27578
ltibia 25.1914
lfoot -5.57193 0.646265
ltoes -13.7462
163
root 0.0685957 18.0053 -7.29731 12.6515 -3.45881 -3.35839
lowerback 3.72826 1.3723 -3.31427
upperback 4.57936 1.68875 4.58182
thorax 2.41422 0.670381 6.6086
lowerneck -14.887 1.89308 1.13956
upperneck 39.2356 6.06323 -8.65745
head 17.2239 1.48345 -2.99783
rclavicle -1.19271e-015 6.36111e-015
rhumerus -20.0117 10.7296 -81.7601
rradius 31.4174
rwrist -9.3091
rhand -21.4942 10.6559
rfingers 7.12502
rthumb 4.89715 -19.2675
lclavicle -1.19271e-015 6.36111e-015
lhumerus -29.1366 -36.9234 97.2024
lradius 48.135
lwrist -6.94303
lhand -16.8362 16.4934
lfingers 7.12502
lthumb 9.39335 46.2641
rfemur -13.9054 -0.383782 26.4523
rtibia 25.3595
rfoot -17.3998 -7.53522
rtoes 0.621354
lfemur -34.9454 5.50295 -8.94532
ltibia 23.5416
lfoot -5.44604 1.05403
ltoes -15.6896
164
root 0.0845522 17.9966 -7.26921 12.8318 -3.43186 -3.42816
lowerback 3.92061 1.37502 -3.41492
upperback 4.59676 1.68686 4.62084
thorax 2.32188 0.668063 6.70363
lowerneck -14.7062 1.90746 1.18476
upperneck 39.0143 6.07206 -8.73455
head 17.0605 1.49181 -3.02708
rclavicle 1.94809e-014 1.82882e-014
rhumerus -19.7424 11.3087 -81.7915
rradius 31.5361
rwrist -9.32802
rhand -21.5289 10.8188
rfingers 7.12502
rthumb 4.86369 -19.1053
lclavicle 1.94809e-014 1.82882e-014
lhumerus -29.2542 -37.819 97.4531
lradius 48.1611
lwrist -6.70944
lhand -16.6173 16.3408
lfingers 7.12502
lthumb 9.60463 46.1019
rfemur -14.1668 -0.486475 26.4854
rtibia 25.6592
rfoot -17.6648 -7.41468
rtoes 1.94229
lfemur -34.8397 4.72372 -8.5139
ltibia 22.0612
lfoot -5.21947 1.41126
ltoes -16.2366
165
root 0.0971449 17.9882 -7.24014 12.955 -3.37167 -3.40607
lowerback 4.17394 1.31711 -3.69016
upperback 4.53109 1.60055 4.67457
thorax 2.11741 0.623835 6.91469
lowerneck -14.2808 1.97256 1.20503
upperneck 38.8187 6.16911 -8.83109
head 16.8584 1.53547 -3.04593
rclavicle 3.97569e-015 9.54166e-015
rhumerus -19.7195 12.2182 -81.907
rradius 31.7656
rwrist -9.31824
rhand -21.9981 10.7081
rfingers 7.12502
rthumb 4.41058 -19.226
lclavicle 3.97569e-015 9.54166e-015
lhumerus -29.5892 -38.4847 97.8649
lradius 48.0241
lwrist -6.71146
lhand -16.5903 16.0021
lfingers 7.12502
lthumb 9.63069 45.7619
rfemur -14.3688 -0.672651 26.4484
rtibia 25.9684
rfoot -17.8281 -7.15027
rtoes 4.79127
lfemur -34.7537 3.99335 -8.20225
ltibia 20.7836
lfoot -4.76078 1.64051
ltoes -16.6873
166
root 0.112473 17.9804 -7.20199 13.0853 -3.50863 -3.43966
lowerback 4.30521 1.42509 -3.64879
upperback 4.88505 1.7377 4.54464
thorax 2.39725 0.678339 6.75267
lowerneck -15.1021 1.98866 1.30332
upperneck 38.7627 6.15338 -8.77224
head 17.0371 1.53079 -3.03763
rclavicle 1.15295e-014 3.18055e-015
rhumerus -18.7925 12.5161 -81.9544
rradius 31.9021
rwrist -9.19831
rhand -22.4867 10.5085
rfingers 7.12502
rthumb 3.93876 -19.4348
lclavicle 1.15295e-014 3.18055e-015
lhumerus -28.7657 -39.7534 97.4847
lradius 47.6372
lwrist -6.81518
lhand -17.1704 15.0109
lfingers 7.12502
lthumb 9.07094 44.7958
rfemur -14.5714 -0.757368 26.4149
rtibia 26.3283
rfoot -17.8076 -6.49145
rtoes 9.88263
lfemur -34.6175 3.40241 -7.85953
ltibia 19.6746
lfoot -4.28749 1.88957
ltoes -17.6822
167
root 0.132352 17.9651 -7.16301 13.2252 -3.70732 -3.56725
lowerback 4.40728 1.52653 -3.61287
upperback 5.0055 1.87032 4.47548
thorax 2.4494 0.742484 6.65412
lowerneck -15.1001 1.94971 1.34334
upperneck 38.5898 6.04023 -8.72031
head 16.9286 1.50001 -3.03219
rclavicle -1.31198e-014 -9.54166e-015
rhumerus -18.3783 12.8428 -82.0648
rradius 32.0343
rwrist -8.95014
rhand -22.774 10.5383
rfingers 7.12502
rthumb 3.66138 -19.41
lclavicle -1.31198e-014 -9.54166e-015
lhumerus -28.7251 -40.9436 97.5726
lradius 47.4369
lwrist -6.88781
lhand -18.2801 13.8818
lfingers 7.12502
lthumb 7.99996 43.7104
rfemur -14.8023 -0.734709 26.4422
rtibia 26.7528
rfoot -18.2906 -7.02317
rtoes 3.20067
lfemur -34.4933 2.8912 -7.46791
ltibia 18.7285
lfoot -3.71911 2.08436
ltoes -19.783
168
root 0.154485 17.9446 -7.12646 13.3353 -3.82728 -3.65952
lowerback 4.47145 1.57685 -3.69962
upperback 5.16692 1.93086 4.4935
thorax 2.57127 0.76193 6.72374
lowerneck -15.0627 1.93285 1.21509
upperneck 38.3457 5.98633 -8.61203
head 16.7707 1.47817 -2.95561
rclavicle 6.36111e-015 1.11319e-014
rhumerus -17.9003 13.3508 -82.0507
rradius 32.1909
rwrist -8.75995
rhand -22.9987 10.5984
rfingers 7.12502
rthumb 3.44436 -19.3536
lclavicle 6.36111e-015 1.11319e-014
lhumerus -28.7345 -42.0509 97.7413
lradius 47.4723
lwrist -6.87906
lhand -19.0736 13.3572
lfingers 7.12502
lthumb 7.23407 43.2135
rfemur -15.0451 -0.720252 26.4371
rtibia 27.261
rfoot -18.6605 -7.11753
rtoes 1.68203
lfemur -34.4152 2.376 -7.15816
ltibia 17.989
lfoot -3.21188 2.17367
ltoes -21.0704
